<svg width="450" height="450" viewBox="0 0 450 450" fill="none" xmlns="http://www.w3.org/2000/svg">
<path d="M369 49.0001C365.8 49.0001 362.8 49.4001 360.1 50.3001C341 55.8001 314 60.9001 285.8 53.6001C228.4 38.7001 161.2 61.0001 111.1 111.1C61 161.2 38.7 228.4 53.6 285.8C60.9 314 55.8 341 50.3 360.1C49.5 362.9 49 365.9 49 369C49 386.7 63.3 401 81 401C84.2 401 87.2 400.6 89.9 399.7C109 394.2 136 389 164.2 396.4C221.6 411.3 288.8 389 338.9 338.9C389 288.8 411.3 221.6 396.4 164.2C389.1 136 394.2 109 399.7 89.9001C400.5 87.1001 401 84.1001 401 81.0001C401 63.3001 386.7 49.0001 369 49.0001ZM369 1.0001C413.2 1.0001 449 36.8001 449 81.0001C449 88.7001 447.9 96.2001 445.9 103.3C441.3 119.1 438.8 136.2 442.9 152.2C463 229.8 432 313.7 372.9 372.9C313.8 432.1 229.8 463.1 152.2 442.9C136.2 438.8 119.2 441.3 103.3 445.9C96.2 447.9 88.7 449 81 449C36.8 449 0.999953 413.2 0.999953 369C0.999953 361.3 2.09995 353.8 4.09995 346.7C8.69995 330.9 11.2 313.8 7.09995 297.8C-13 220.3 18 136.3 77.2 77.2001C136.4 18.1001 220.3 -12.9999 297.8 7.10009C313.8 11.2001 330.8 8.70009 346.7 4.10009C353.8 2.10009 361.3 1.0001 369 1.0001ZM247.7 136C195.7 151.2 151.2 195.7 136 247.7C132.3 260.4 118.9 267.7 106.2 264C93.5 260.3 86.2 246.9 89.9 234.2C109.7 166.5 166.5 109.7 234.2 89.9001C246.9 86.2001 260.3 93.5001 264 106.2C267.7 118.9 260.4 132.3 247.7 136Z" fill="#FACC15"/>
</svg>
